<svg width="38" height="41" viewBox="0 0 38 41" fill="none" xmlns="http://www.w3.org/2000/svg">
<path d="M37.5137 14.6989C37.0097 13.3419 35.8387 12.4113 34.7454 11.5351C33.6597 10.6666 32.4965 9.80583 31.7909 8.58837C31.6746 8.38675 31.5738 8.16962 31.4885 7.9525C30.5036 5.43228 32.0003 2.30721 28.0765 0.422857C26.6574 -0.259541 24.9281 -0.127714 23.7339 0.903637C23.1291 1.42319 22.6561 2.09783 22.2993 2.81125C21.9426 3.51691 21.679 4.29236 21.1439 4.8662C20.6321 5.40901 19.6783 5.76572 19.0192 5.26943C18.678 5.02129 18.5074 4.61805 18.3368 4.23033C17.825 3.05939 17.2201 1.88071 16.2508 1.04322C15.6305 0.508157 14.8473 0.13594 14.033 0.0583946C13.2653 -0.0113961 12.4356 0.236749 11.7532 0.577947C10.5823 1.15178 9.64397 2.22191 9.25624 3.47038C8.79873 4.9515 9.07789 6.60321 8.47304 8.03004C7.91471 9.37157 6.68174 10.2789 5.61162 11.2637C2.02903 14.5516 -0.118974 19.3982 0.00509864 24.2603C0.129171 29.1223 2.59511 33.8991 6.58093 36.6908C9.24073 38.5596 12.4511 39.5134 15.6692 40.0174C20.857 40.8239 26.0138 39.6918 30.1159 36.5202C33.4038 33.9844 35.5131 30.1227 35.7457 25.9818C35.9163 23.0273 35.1874 20.2822 33.2332 18.0411C31.0542 15.5519 27.8051 14.3267 24.5249 14.4896C22.1055 14.6136 19.593 15.1177 17.5536 16.498C15.3978 17.9636 13.3816 20.0806 12.7225 22.6706C11.9936 25.4932 13.2033 28.8975 15.9717 30.0917C17.6311 30.8128 19.5 31.0455 21.299 30.8904C24.5869 30.619 27.4406 28.9285 28.6425 25.7414C28.9295 24.9737 29.1233 24.1672 29.2629 23.353C28.8519 24.8806 28.216 26.1911 27.1925 27.4319C24.1372 31.1463 16.6463 31.061 14.6767 27.6567C11.5051 22.1433 18.5229 17.0796 21.2215 16.2576C24.7808 15.1797 30.0461 16.1723 32.2717 19.1423C33.7373 21.1197 34.1405 23.7329 33.7993 26.1679C33.3418 29.3937 31.6203 32.418 29.0846 34.4497C25.2616 37.5205 19.7946 38.1564 15.1574 36.5744C10.59 35.0235 6.6895 31.2548 5.54958 26.5633C5.00676 24.3688 5.08431 21.9959 5.94506 19.9022C6.79806 17.8162 8.38774 16.1025 10.179 14.7377C12.9164 12.6595 16.212 11.3257 19.624 10.907C23.2066 10.4727 26.859 11.031 30.302 12.1167C32.5974 12.8456 34.8229 13.7994 36.9244 14.9626C37.1958 15.1099 37.6533 15.1332 37.506 14.6989H37.5137ZM15.0566 6.14569C15.0566 6.14569 15.1264 6.14569 15.1652 6.13794C14.9403 6.71177 14.382 7.11501 13.7306 7.11501C12.8931 7.11501 12.203 6.43261 12.203 5.58737V3.64098C12.203 2.79574 12.8931 2.11334 13.7306 2.11334C14.1571 2.11334 14.5371 2.28394 14.8162 2.5631C14.9713 2.71044 15.0876 2.89655 15.1652 3.09817C15.1264 3.09041 15.0954 3.09041 15.0566 3.09041C14.6379 3.09041 14.2502 3.26101 13.9787 3.54017C13.6996 3.81158 13.529 4.19155 13.529 4.61805C13.529 5.45554 14.2114 6.14569 15.0566 6.14569ZM28.4487 6.14569C28.4487 6.14569 28.5185 6.14569 28.5495 6.13794C28.3246 6.71177 27.774 7.11501 27.1227 7.11501C26.2774 7.11501 25.595 6.43261 25.595 5.58737V3.64098C25.595 2.79574 26.2774 2.11334 27.1227 2.11334C27.5414 2.11334 27.9291 2.28394 28.2005 2.5631C28.3556 2.71044 28.4719 2.89655 28.5495 3.09817C28.5185 3.09041 28.4797 3.09041 28.4487 3.09041C28.0222 3.09041 27.6422 3.26101 27.3708 3.54017C27.0916 3.81158 26.921 4.19155 26.921 4.61805C26.921 5.45554 27.6034 6.14569 28.4487 6.14569Z" fill="#F3A86D"/>
</svg>
