<svg width="36" height="39" viewBox="0 0 36 39" fill="none" xmlns="http://www.w3.org/2000/svg">
<path d="M35.9251 14.1031C35.4496 12.823 34.3451 11.9452 33.3137 11.1187C32.2897 10.2994 31.1924 9.48748 30.5268 8.33907C30.4171 8.14889 30.322 7.94408 30.2415 7.73927C29.3126 5.36199 30.7243 2.41417 27.0231 0.636697C25.6845 -0.00699654 24.0533 0.117353 22.9268 1.09021C22.3563 1.58029 21.9101 2.21667 21.5736 2.88962C21.2371 3.55526 20.9884 4.28673 20.4837 4.82802C20.001 5.34005 19.1013 5.67652 18.4795 5.20838C18.1577 4.97431 17.9967 4.59395 17.8358 4.22821C17.353 3.12369 16.7825 2.01186 15.8682 1.22187C15.283 0.717158 14.5442 0.366053 13.7762 0.292906C13.052 0.227074 12.2693 0.461144 11.6256 0.782991C10.5211 1.32428 9.63604 2.33371 9.2703 3.51137C8.83874 4.90848 9.10207 6.46651 8.53152 7.81241C8.00486 9.07786 6.84183 9.93367 5.8324 10.8626C2.45301 13.9641 0.426837 18.5358 0.543872 23.1221C0.660907 27.7084 2.98698 32.2142 6.74673 34.8475C9.25567 36.6104 12.284 37.5101 15.3196 37.9855C20.2131 38.7463 25.0774 37.6783 28.9468 34.6866C32.0483 32.2947 34.0379 28.652 34.2573 24.7459C34.4182 21.959 33.7306 19.3696 31.8873 17.2557C29.8319 14.9077 26.7671 13.7519 23.6729 13.9056C21.3908 14.0226 19.0208 14.498 17.097 15.8001C15.0635 17.1825 13.1617 19.1795 12.54 21.6226C11.8524 24.2851 12.9935 27.4963 15.6048 28.6227C17.1702 29.303 18.933 29.5224 20.63 29.3761C23.7315 29.1201 26.4233 27.5255 27.557 24.5192C27.8277 23.795 28.0106 23.0343 28.1422 22.2663C27.7545 23.7072 27.1547 24.9434 26.1892 26.1138C23.3072 29.6175 16.2412 29.5371 14.3833 26.3259C11.3916 21.1252 18.0114 16.3487 20.5569 15.5733C23.9143 14.5566 28.881 15.4928 30.9803 18.2944C32.3628 20.1596 32.7432 22.6247 32.4213 24.9215C31.9898 27.9644 30.3659 30.8171 27.974 32.7336C24.3678 35.6302 19.211 36.23 14.8368 34.7378C10.5284 33.2749 6.84914 29.7199 5.77388 25.2945C5.26185 23.2245 5.335 20.9862 6.14693 19.0112C6.95155 17.0436 8.45106 15.427 10.1408 14.1396C12.7228 12.1793 15.8316 10.9212 19.0501 10.5262C22.4294 10.1165 25.8747 10.6432 29.1224 11.6673C31.2875 12.3548 33.3869 13.2545 35.3691 14.3518C35.6252 14.4907 36.0567 14.5127 35.9177 14.1031H35.9251ZM14.7417 6.03494C14.7417 6.03494 14.8075 6.03494 14.8441 6.02763C14.632 6.56892 14.1053 6.94928 13.4909 6.94928C12.7009 6.94928 12.0499 6.30559 12.0499 5.50828V3.6723C12.0499 2.87499 12.7009 2.2313 13.4909 2.2313C13.8932 2.2313 14.2516 2.39222 14.5149 2.65555C14.6612 2.79453 14.771 2.97008 14.8441 3.16027C14.8075 3.15295 14.7783 3.15295 14.7417 3.15295C14.3467 3.15295 13.981 3.31388 13.725 3.5772C13.4616 3.83322 13.3007 4.19164 13.3007 4.59395C13.3007 5.38393 13.9444 6.03494 14.7417 6.03494ZM27.3742 6.03494C27.3742 6.03494 27.44 6.03494 27.4693 6.02763C27.2571 6.56892 26.7378 6.94928 26.1234 6.94928C25.3261 6.94928 24.6824 6.30559 24.6824 5.50828V3.6723C24.6824 2.87499 25.3261 2.2313 26.1234 2.2313C26.5184 2.2313 26.8841 2.39222 27.1401 2.65555C27.2864 2.79453 27.3961 2.97008 27.4693 3.16027C27.44 3.15295 27.4034 3.15295 27.3742 3.15295C26.9719 3.15295 26.6134 3.31388 26.3574 3.5772C26.0941 3.83322 25.9332 4.19164 25.9332 4.59395C25.9332 5.38393 26.5769 6.03494 27.3742 6.03494Z" fill="#CC6D59"/>
</svg>
