<svg width="123" height="123" viewBox="0 0 123 123" fill="none" xmlns="http://www.w3.org/2000/svg">
<circle cx="61.1072" cy="61.1072" r="61.1072" fill="#EB7E66"/>
<path d="M71.75 29.5C77.6141 29.5 82.4234 33.9719 82.9578 39.6953L94.9953 43.3938C98.5672 44.4906 101.014 47.7953 101.014 51.5359C101.014 54.6016 99.3688 57.4281 96.6969 58.9469L76.3625 70.4922L89.3703 83.5H96.5C98.9891 83.5 101 85.5109 101 88C101 90.4891 98.9891 92.5 96.5 92.5H87.5C86.3047 92.5 85.1656 92.0219 84.3219 91.1781L68.7828 75.6531C70.4281 70.5906 69.2328 64.8109 65.2109 60.7891C59.5016 55.0797 50.2625 55.0797 44.5531 60.775L34.2031 70.6187C33.3031 71.4766 33.2609 72.8969 34.1188 73.7969C34.9766 74.6969 36.3969 74.725 37.2969 73.8813L47.675 64.0094L47.6891 63.9953L47.7031 63.9813C48.1953 63.4891 48.7297 63.0531 49.2922 62.6875C53.2156 60.0859 58.5594 60.5219 62.0187 63.9813C65.4922 67.4547 65.9141 72.8266 63.2844 76.7641C62.9187 77.2984 62.4969 77.8187 62.0187 78.2969L56.8156 83.5H69.5C71.9891 83.5 74 85.5109 74 88C74 90.4891 71.9891 92.5 69.5 92.5H29C24.0359 92.5 20 88.4641 20 83.5C20 60.1 37.8594 40.8766 60.6828 38.7109C61.6531 33.4656 66.2375 29.5 71.75 29.5ZM71.75 44.125C72.1932 44.125 72.6321 44.0377 73.0416 43.8681C73.451 43.6985 73.8231 43.4499 74.1365 43.1365C74.4499 42.8231 74.6985 42.451 74.8681 42.0416C75.0377 41.6321 75.125 41.1932 75.125 40.75C75.125 40.3068 75.0377 39.8679 74.8681 39.4584C74.6985 39.049 74.4499 38.6769 74.1365 38.3635C73.8231 38.0501 73.451 37.8015 73.0416 37.6319C72.6321 37.4623 72.1932 37.375 71.75 37.375C71.3068 37.375 70.8679 37.4623 70.4584 37.6319C70.049 37.8015 69.6769 38.0501 69.3635 38.3635C69.0501 38.6769 68.8015 39.049 68.6319 39.4584C68.4623 39.8679 68.375 40.3068 68.375 40.75C68.375 41.1932 68.4623 41.6321 68.6319 42.0416C68.8015 42.451 69.0501 42.8231 69.3635 43.1365C69.6769 43.4499 70.049 43.6985 70.4584 43.8681C70.8679 44.0377 71.3068 44.125 71.75 44.125Z" fill="white"/>
</svg>
