<svg width="123" height="123" viewBox="0 0 123 123" fill="none" xmlns="http://www.w3.org/2000/svg">
<circle cx="61.5" cy="61.1072" r="61.1072" fill="#F3A86D"/>
<path d="M31.125 41.25C29.2687 41.25 27.75 42.7688 27.75 44.625V88.5C27.75 92.2125 30.7875 95.25 34.5 95.25H78.375C80.2313 95.25 81.75 93.7312 81.75 91.875C81.75 90.0187 80.2313 88.5 78.375 88.5H37.875C36.0188 88.5 34.5 86.9813 34.5 85.125V44.625C34.5 42.7688 32.9812 41.25 31.125 41.25ZM88.5 27.75H48C44.2875 27.75 41.25 30.7875 41.25 34.5V75C41.25 78.7125 44.2875 81.75 48 81.75H88.5C92.2125 81.75 95.25 78.7125 95.25 75V34.5C95.25 30.7875 92.2125 27.75 88.5 27.75ZM81.75 58.125H54.75C52.8937 58.125 51.375 56.6063 51.375 54.75C51.375 52.8937 52.8937 51.375 54.75 51.375H81.75C83.6063 51.375 85.125 52.8937 85.125 54.75C85.125 56.6063 83.6063 58.125 81.75 58.125ZM68.25 71.625H54.75C52.8937 71.625 51.375 70.1063 51.375 68.25C51.375 66.3937 52.8937 64.875 54.75 64.875H68.25C70.1063 64.875 71.625 66.3937 71.625 68.25C71.625 70.1063 70.1063 71.625 68.25 71.625ZM81.75 44.625H54.75C52.8937 44.625 51.375 43.1062 51.375 41.25C51.375 39.3938 52.8937 37.875 54.75 37.875H81.75C83.6063 37.875 85.125 39.3938 85.125 41.25C85.125 43.1062 83.6063 44.625 81.75 44.625Z" fill="white"/>
</svg>
