<svg width="123" height="123" viewBox="0 0 123 123" fill="none" xmlns="http://www.w3.org/2000/svg">
<circle cx="61.893" cy="61.1072" r="61.1072" fill="#EB7E66"/>
<path fill-rule="evenodd" clip-rule="evenodd" d="M45.76 27.6208C49.6273 26.0001 53.7723 25.1659 57.9583 25.1659C62.1443 25.1659 66.2893 26.0001 70.1566 27.6208C74.024 29.2416 77.5379 31.6172 80.4978 34.6119C83.4578 37.6067 85.8057 41.162 87.4076 45.0748C89.0096 48.9877 89.834 53.1814 89.834 57.4166C89.834 61.6519 89.0095 65.8456 87.4076 69.7585C86.2595 72.563 84.728 75.1839 82.8626 77.5464L95.8793 90.7162C97.2624 92.1156 97.2624 94.3844 95.8793 95.7838C94.4962 97.1832 92.2537 97.1832 90.8706 95.7838L77.854 82.614C72.2324 87.1581 65.2232 89.6674 57.9583 89.6674C49.5043 89.6674 41.3966 86.2695 35.4188 80.2214C29.4409 74.1732 26.0826 65.9701 26.0826 57.4166C26.0826 48.8632 29.4409 40.6601 35.4188 34.6119C38.3787 31.6172 41.8927 29.2416 45.76 27.6208ZM57.9583 32.3326C54.7025 32.3326 51.4786 32.9814 48.4707 34.242C45.4627 35.5026 42.7296 37.3502 40.4274 39.6795C35.778 44.3837 33.1659 50.7639 33.1659 57.4166C33.1659 64.0693 35.778 70.4496 40.4274 75.1538C45.0769 79.8579 51.383 82.5007 57.9583 82.5007C64.5337 82.5007 70.8397 79.8579 75.4892 75.1538C77.7914 72.8245 79.6176 70.0592 80.8635 67.0159C82.1094 63.9726 82.7507 60.7107 82.7507 57.4166C82.7507 54.1225 82.1094 50.8607 80.8635 47.8174C79.6176 44.774 77.7914 42.0088 75.4892 39.6795C73.187 37.3502 70.4539 35.5026 67.4459 34.242C64.438 32.9814 61.2141 32.3326 57.9583 32.3326Z" fill="white"/>
</svg>
